<svg width="670" height="576" viewBox="0 0 670 576" fill="none" xmlns="http://www.w3.org/2000/svg">
<g clip-path="url(#clip0_1_3)">
<path opacity="0.4" d="M669.121 300.622C667.031 349.636 601.525 372.609 583.167 418.103C563.942 465.746 606.579 545.462 560.864 568.906C507.256 596.397 449.718 522.629 389.707 517.314C356.107 514.338 327.297 546.541 293.59 545.234C259.419 543.909 230.168 522.738 198.472 509.901C162.852 495.474 124.223 488.008 93.9256 464.366C60.0967 437.967 29.3521 405.507 13.5633 365.608C-2.90362 323.995 -1.26244 277.876 2.48133 233.28C6.4947 185.472 11.1212 135.845 36.2807 94.9963C61.8818 53.4302 97.4012 5.55004 145.942 0.356475C200.636 -5.49553 239.981 62.5735 294.781 67.3382C336.017 70.9235 369.243 13.3035 409.418 23.2649C448.592 32.9781 455.7 88.847 486.538 114.885C518.57 141.931 563.992 148.696 593.382 178.592C627.314 213.111 671.184 252.262 669.121 300.622Z" fill="#D73B3B"/>
<path d="M335.5 308C366.152 308 391 283.152 391 252.5C391 221.848 366.152 197 335.5 197C304.848 197 280 221.848 280 252.5C280 283.152 304.848 308 335.5 308Z" fill="url(#paint0_radial_1_3)"/>
<path d="M336 288.5C356.158 288.5 372.5 272.158 372.5 252C372.5 231.842 356.158 215.5 336 215.5C315.842 215.5 299.5 231.842 299.5 252C299.5 272.158 315.842 288.5 336 288.5Z" fill="#F2F2F2" stroke="#EBEBEB"/>
<path d="M339.56 257.007C341.193 257.126 341.731 259.028 342.715 260.267C343.638 261.429 345.236 262.388 344.971 263.82C344.698 265.285 342.937 265.863 341.547 266.558C340.051 267.305 338.5 268.413 336.919 267.842C335.244 267.237 334.281 265.527 334.034 263.845C333.809 262.319 334.741 260.981 335.73 259.758C336.754 258.49 337.879 256.884 339.56 257.007Z" fill="#C2B790"/>
<path d="M348.477 241.004C349.165 241.076 349.539 242.232 349.979 243.117C350.435 244.035 351.079 244.885 350.992 246.069C350.898 247.345 350.277 248.388 349.556 248.846C348.896 249.265 348.211 248.75 347.573 248.24C346.935 247.729 346.223 247.18 346.045 246.037C345.862 244.867 346.265 243.719 346.721 242.777C347.172 241.842 347.759 240.929 348.477 241.004Z" fill="#C2B790"/>
<path d="M328.854 241.003C330.368 240.948 331.883 241.712 332.66 242.951C333.353 244.054 332.848 245.404 332.371 246.607C331.992 247.563 331.331 248.391 330.344 248.79C329.412 249.166 328.382 248.998 327.465 248.589C326.533 248.174 325.768 247.511 325.413 246.591C324.984 245.478 324.762 244.234 325.391 243.212C326.131 242.011 327.393 241.055 328.854 241.003Z" fill="#C2B790"/>
<path d="M260 285.02V286.5H251.058L248.822 305H234.104L236.153 286.5H192L258.696 194L260 194.74C241.618 220.147 219.945 250.24 194.981 285.02H236.34L242.488 233.96H257.392L251.244 285.02H260Z" fill="#242536"/>
<path d="M479 285.02V286.5H470.058L467.822 305H453.104L455.153 286.5H411L477.696 194L479 194.74C460.618 220.147 438.945 250.24 413.981 285.02H455.34L461.488 233.96H476.392L470.244 285.02H479Z" fill="#242536"/>
<path d="M113.1 380L108.328 362.545H110.475L114.123 376.761H114.294L118.01 362.545H120.396L124.112 376.761H124.282L127.93 362.545H130.078L125.305 380H123.123L119.271 366.091H119.135L115.282 380H113.1ZM136.708 380.273C135.447 380.273 134.359 379.994 133.444 379.438C132.535 378.875 131.833 378.091 131.339 377.085C130.85 376.074 130.606 374.898 130.606 373.557C130.606 372.216 130.85 371.034 131.339 370.011C131.833 368.983 132.521 368.182 133.402 367.608C134.288 367.028 135.322 366.739 136.504 366.739C137.186 366.739 137.859 366.852 138.524 367.08C139.189 367.307 139.794 367.676 140.339 368.188C140.885 368.693 141.319 369.364 141.643 370.199C141.967 371.034 142.129 372.062 142.129 373.284V374.136H132.038V372.398H140.083C140.083 371.659 139.936 371 139.64 370.42C139.35 369.841 138.936 369.384 138.396 369.048C137.862 368.713 137.231 368.545 136.504 368.545C135.703 368.545 135.01 368.744 134.424 369.142C133.845 369.534 133.399 370.045 133.086 370.676C132.774 371.307 132.618 371.983 132.618 372.705V373.864C132.618 374.852 132.788 375.69 133.129 376.378C133.475 377.06 133.956 377.58 134.569 377.938C135.183 378.29 135.896 378.466 136.708 378.466C137.237 378.466 137.714 378.392 138.14 378.244C138.572 378.091 138.944 377.864 139.257 377.562C139.569 377.256 139.811 376.875 139.981 376.42L141.924 376.966C141.72 377.625 141.376 378.205 140.893 378.705C140.41 379.199 139.814 379.585 139.103 379.864C138.393 380.136 137.595 380.273 136.708 380.273ZM156.882 380.273C155.791 380.273 154.828 379.997 153.993 379.446C153.157 378.889 152.504 378.105 152.032 377.094C151.561 376.077 151.325 374.875 151.325 373.489C151.325 372.114 151.561 370.92 152.032 369.909C152.504 368.898 153.16 368.116 154.001 367.565C154.842 367.014 155.814 366.739 156.916 366.739C157.768 366.739 158.441 366.881 158.936 367.165C159.436 367.443 159.816 367.761 160.078 368.119C160.345 368.472 160.552 368.761 160.7 368.989H160.87V362.545H162.882V380H160.939V377.989H160.7C160.552 378.227 160.342 378.528 160.069 378.892C159.797 379.25 159.407 379.571 158.902 379.855C158.396 380.134 157.723 380.273 156.882 380.273ZM157.154 378.466C157.961 378.466 158.643 378.256 159.2 377.835C159.757 377.409 160.18 376.821 160.47 376.071C160.76 375.315 160.904 374.443 160.904 373.455C160.904 372.477 160.762 371.622 160.478 370.889C160.194 370.151 159.774 369.577 159.217 369.168C158.66 368.753 157.973 368.545 157.154 368.545C156.302 368.545 155.592 368.764 155.024 369.202C154.461 369.634 154.038 370.222 153.754 370.966C153.475 371.705 153.336 372.534 153.336 373.455C153.336 374.386 153.478 375.233 153.762 375.994C154.052 376.75 154.478 377.352 155.041 377.801C155.609 378.244 156.314 378.466 157.154 378.466ZM166.845 380V366.909H168.856V380H166.845ZM167.868 364.727C167.475 364.727 167.137 364.594 166.853 364.327C166.575 364.06 166.436 363.739 166.436 363.364C166.436 362.989 166.575 362.668 166.853 362.401C167.137 362.134 167.475 362 167.868 362C168.26 362 168.595 362.134 168.873 362.401C169.157 362.668 169.299 362.989 169.299 363.364C169.299 363.739 169.157 364.06 168.873 364.327C168.595 364.594 168.26 364.727 167.868 364.727ZM177.483 380.273C176.392 380.273 175.429 379.997 174.594 379.446C173.759 378.889 173.105 378.105 172.634 377.094C172.162 376.077 171.926 374.875 171.926 373.489C171.926 372.114 172.162 370.92 172.634 369.909C173.105 368.898 173.762 368.116 174.603 367.565C175.444 367.014 176.415 366.739 177.517 366.739C178.37 366.739 179.043 366.881 179.537 367.165C180.037 367.443 180.418 367.761 180.679 368.119C180.946 368.472 181.154 368.761 181.301 368.989H181.472V362.545H183.483V380H181.54V377.989H181.301C181.154 378.227 180.944 378.528 180.671 378.892C180.398 379.25 180.009 379.571 179.503 379.855C178.998 380.134 178.324 380.273 177.483 380.273ZM177.756 378.466C178.563 378.466 179.245 378.256 179.801 377.835C180.358 377.409 180.782 376.821 181.071 376.071C181.361 375.315 181.506 374.443 181.506 373.455C181.506 372.477 181.364 371.622 181.08 370.889C180.796 370.151 180.375 369.577 179.819 369.168C179.262 368.753 178.574 368.545 177.756 368.545C176.904 368.545 176.194 368.764 175.625 369.202C175.063 369.634 174.64 370.222 174.355 370.966C174.077 371.705 173.938 372.534 173.938 373.455C173.938 374.386 174.08 375.233 174.364 375.994C174.654 376.75 175.08 377.352 175.642 377.801C176.211 378.244 176.915 378.466 177.756 378.466ZM189.458 372.125V380H187.446V366.909H189.39V368.955H189.56C189.867 368.29 190.333 367.756 190.958 367.352C191.583 366.943 192.39 366.739 193.378 366.739C194.265 366.739 195.04 366.92 195.705 367.284C196.37 367.642 196.887 368.188 197.256 368.92C197.625 369.648 197.81 370.568 197.81 371.682V380H195.799V371.818C195.799 370.79 195.532 369.989 194.998 369.415C194.463 368.835 193.73 368.545 192.799 368.545C192.157 368.545 191.583 368.685 191.077 368.963C190.577 369.241 190.182 369.648 189.892 370.182C189.603 370.716 189.458 371.364 189.458 372.125ZM203.224 362.545V368.545H201.349V362.545H203.224ZM212.499 366.909V368.614H205.715V366.909H212.499ZM207.692 363.773H209.703V376.25C209.703 376.818 209.786 377.244 209.951 377.528C210.121 377.807 210.337 377.994 210.598 378.091C210.865 378.182 211.147 378.227 211.442 378.227C211.664 378.227 211.846 378.216 211.988 378.193C212.13 378.165 212.243 378.142 212.328 378.125L212.738 379.932C212.601 379.983 212.411 380.034 212.167 380.085C211.922 380.142 211.613 380.17 211.238 380.17C210.669 380.17 210.113 380.048 209.567 379.804C209.027 379.56 208.578 379.188 208.221 378.688C207.868 378.188 207.692 377.557 207.692 376.795V363.773ZM228.104 366.909V368.614H221.047V366.909H228.104ZM223.161 380V365.102C223.161 364.352 223.337 363.727 223.689 363.227C224.042 362.727 224.499 362.352 225.061 362.102C225.624 361.852 226.218 361.727 226.843 361.727C227.337 361.727 227.74 361.767 228.053 361.847C228.365 361.926 228.598 362 228.752 362.068L228.172 363.807C228.07 363.773 227.928 363.73 227.746 363.679C227.57 363.628 227.337 363.602 227.047 363.602C226.382 363.602 225.902 363.77 225.607 364.105C225.317 364.44 225.172 364.932 225.172 365.58V380H223.161ZM230.923 380V366.909H232.934V380H230.923ZM231.946 364.727C231.554 364.727 231.216 364.594 230.931 364.327C230.653 364.06 230.514 363.739 230.514 363.364C230.514 362.989 230.653 362.668 230.931 362.401C231.216 362.134 231.554 362 231.946 362C232.338 362 232.673 362.134 232.951 362.401C233.235 362.668 233.377 362.989 233.377 363.364C233.377 363.739 233.235 364.06 232.951 364.327C232.673 364.594 232.338 364.727 231.946 364.727ZM238.63 372.125V380H236.618V366.909H238.561V368.955H238.732C239.039 368.29 239.505 367.756 240.13 367.352C240.755 366.943 241.561 366.739 242.55 366.739C243.436 366.739 244.212 366.92 244.877 367.284C245.542 367.642 246.059 368.188 246.428 368.92C246.797 369.648 246.982 370.568 246.982 371.682V380H244.971V371.818C244.971 370.79 244.703 369.989 244.169 369.415C243.635 368.835 242.902 368.545 241.971 368.545C241.328 368.545 240.755 368.685 240.249 368.963C239.749 369.241 239.354 369.648 239.064 370.182C238.775 370.716 238.63 371.364 238.63 372.125ZM255.6 380.273C254.51 380.273 253.547 379.997 252.711 379.446C251.876 378.889 251.223 378.105 250.751 377.094C250.279 376.077 250.044 374.875 250.044 373.489C250.044 372.114 250.279 370.92 250.751 369.909C251.223 368.898 251.879 368.116 252.72 367.565C253.561 367.014 254.532 366.739 255.635 366.739C256.487 366.739 257.16 366.881 257.654 367.165C258.154 367.443 258.535 367.761 258.797 368.119C259.064 368.472 259.271 368.761 259.419 368.989H259.589V362.545H261.6V380H259.657V377.989H259.419C259.271 378.227 259.061 378.528 258.788 378.892C258.515 379.25 258.126 379.571 257.62 379.855C257.115 380.134 256.441 380.273 255.6 380.273ZM255.873 378.466C256.68 378.466 257.362 378.256 257.919 377.835C258.475 377.409 258.899 376.821 259.189 376.071C259.478 375.315 259.623 374.443 259.623 373.455C259.623 372.477 259.481 371.622 259.197 370.889C258.913 370.151 258.493 369.577 257.936 369.168C257.379 368.753 256.691 368.545 255.873 368.545C255.021 368.545 254.311 368.764 253.743 369.202C253.18 369.634 252.757 370.222 252.473 370.966C252.194 371.705 252.055 372.534 252.055 373.455C252.055 374.386 252.197 375.233 252.481 375.994C252.771 376.75 253.197 377.352 253.76 377.801C254.328 378.244 255.032 378.466 255.873 378.466ZM275.279 380L271.291 366.909H273.404L276.234 376.932H276.37L279.166 366.909H281.314L284.075 376.898H284.211L287.041 366.909H289.154L285.166 380H283.189L280.325 369.943H280.12L277.257 380H275.279ZM293.825 372.125V380H291.814V362.545H293.825V368.955H293.995C294.302 368.278 294.762 367.741 295.376 367.344C295.995 366.94 296.819 366.739 297.848 366.739C298.74 366.739 299.521 366.918 300.191 367.276C300.862 367.628 301.382 368.17 301.751 368.903C302.126 369.631 302.314 370.557 302.314 371.682V380H300.302V371.818C300.302 370.778 300.032 369.974 299.493 369.406C298.958 368.832 298.217 368.545 297.268 368.545C296.609 368.545 296.018 368.685 295.495 368.963C294.978 369.241 294.569 369.648 294.268 370.182C293.973 370.716 293.825 371.364 293.825 372.125ZM309.846 380.307C309.016 380.307 308.263 380.151 307.587 379.838C306.911 379.52 306.374 379.062 305.976 378.466C305.578 377.864 305.38 377.136 305.38 376.284C305.38 375.534 305.527 374.926 305.823 374.46C306.118 373.989 306.513 373.619 307.007 373.352C307.502 373.085 308.047 372.886 308.644 372.756C309.246 372.619 309.851 372.511 310.459 372.432C311.255 372.33 311.9 372.253 312.394 372.202C312.894 372.145 313.257 372.051 313.485 371.92C313.718 371.79 313.834 371.562 313.834 371.239V371.17C313.834 370.33 313.604 369.676 313.144 369.21C312.689 368.744 311.999 368.511 311.073 368.511C310.113 368.511 309.36 368.722 308.814 369.142C308.269 369.562 307.885 370.011 307.664 370.489L305.755 369.807C306.096 369.011 306.55 368.392 307.118 367.949C307.692 367.5 308.317 367.187 308.993 367.011C309.675 366.83 310.346 366.739 311.005 366.739C311.425 366.739 311.908 366.79 312.453 366.892C313.005 366.989 313.536 367.19 314.047 367.497C314.564 367.804 314.993 368.267 315.334 368.886C315.675 369.506 315.846 370.335 315.846 371.375V380H313.834V378.227H313.732C313.596 378.511 313.368 378.815 313.05 379.139C312.732 379.463 312.309 379.739 311.78 379.966C311.252 380.193 310.607 380.307 309.846 380.307ZM310.152 378.5C310.948 378.5 311.618 378.344 312.164 378.031C312.715 377.719 313.13 377.315 313.408 376.821C313.692 376.327 313.834 375.807 313.834 375.261V373.42C313.749 373.523 313.561 373.616 313.272 373.702C312.988 373.781 312.658 373.852 312.283 373.915C311.914 373.972 311.553 374.023 311.201 374.068C310.854 374.108 310.573 374.142 310.357 374.17C309.834 374.239 309.346 374.349 308.891 374.503C308.442 374.651 308.078 374.875 307.8 375.176C307.527 375.472 307.391 375.875 307.391 376.386C307.391 377.085 307.65 377.614 308.167 377.972C308.689 378.324 309.351 378.5 310.152 378.5ZM325.21 366.909V368.614H318.426V366.909H325.21ZM320.403 363.773H322.414V376.25C322.414 376.818 322.497 377.244 322.662 377.528C322.832 377.807 323.048 377.994 323.309 378.091C323.576 378.182 323.858 378.227 324.153 378.227C324.375 378.227 324.556 378.216 324.699 378.193C324.841 378.165 324.954 378.142 325.039 378.125L325.449 379.932C325.312 379.983 325.122 380.034 324.877 380.085C324.633 380.142 324.324 380.17 323.949 380.17C323.38 380.17 322.824 380.048 322.278 379.804C321.738 379.56 321.289 379.188 320.931 378.688C320.579 378.188 320.403 377.557 320.403 376.795V363.773ZM336.281 384.909C335.94 384.909 335.636 384.881 335.369 384.824C335.102 384.773 334.917 384.722 334.815 384.67L335.326 382.898C335.815 383.023 336.247 383.068 336.622 383.034C336.997 383 337.329 382.832 337.619 382.531C337.914 382.236 338.184 381.756 338.429 381.091L338.804 380.068L333.963 366.909H336.145L339.758 377.341H339.895L343.508 366.909H345.69L340.133 381.909C339.883 382.585 339.574 383.145 339.204 383.588C338.835 384.037 338.406 384.369 337.917 384.585C337.434 384.801 336.889 384.909 336.281 384.909ZM353.194 380.273C352.012 380.273 350.975 379.991 350.083 379.429C349.197 378.866 348.504 378.08 348.004 377.068C347.51 376.057 347.262 374.875 347.262 373.523C347.262 372.159 347.51 370.969 348.004 369.952C348.504 368.935 349.197 368.145 350.083 367.582C350.975 367.02 352.012 366.739 353.194 366.739C354.376 366.739 355.41 367.02 356.297 367.582C357.189 368.145 357.882 368.935 358.376 369.952C358.876 370.969 359.126 372.159 359.126 373.523C359.126 374.875 358.876 376.057 358.376 377.068C357.882 378.08 357.189 378.866 356.297 379.429C355.41 379.991 354.376 380.273 353.194 380.273ZM353.194 378.466C354.092 378.466 354.831 378.236 355.41 377.776C355.99 377.315 356.419 376.71 356.697 375.96C356.975 375.21 357.115 374.398 357.115 373.523C357.115 372.648 356.975 371.832 356.697 371.077C356.419 370.321 355.99 369.71 355.41 369.244C354.831 368.778 354.092 368.545 353.194 368.545C352.297 368.545 351.558 368.778 350.978 369.244C350.399 369.71 349.97 370.321 349.691 371.077C349.413 371.832 349.274 372.648 349.274 373.523C349.274 374.398 349.413 375.21 349.691 375.96C349.97 376.71 350.399 377.315 350.978 377.776C351.558 378.236 352.297 378.466 353.194 378.466ZM370.446 374.648V366.909H372.458V380H370.446V377.784H370.31C370.003 378.449 369.526 379.014 368.878 379.48C368.23 379.94 367.412 380.17 366.424 380.17C365.605 380.17 364.878 379.991 364.242 379.634C363.605 379.27 363.105 378.724 362.742 377.997C362.378 377.264 362.196 376.341 362.196 375.227V366.909H364.208V375.091C364.208 376.045 364.475 376.807 365.009 377.375C365.549 377.943 366.236 378.227 367.071 378.227C367.571 378.227 368.08 378.099 368.597 377.844C369.12 377.588 369.557 377.196 369.909 376.668C370.267 376.139 370.446 375.466 370.446 374.648ZM385.858 380L381.869 366.909H383.983L386.812 376.932H386.949L389.744 366.909H391.892L394.653 376.898H394.789L397.619 366.909H399.733L395.744 380H393.767L390.903 369.943H390.699L387.835 380H385.858ZM407.435 380.273C406.174 380.273 405.086 379.994 404.171 379.438C403.262 378.875 402.56 378.091 402.066 377.085C401.577 376.074 401.333 374.898 401.333 373.557C401.333 372.216 401.577 371.034 402.066 370.011C402.56 368.983 403.248 368.182 404.128 367.608C405.015 367.028 406.049 366.739 407.23 366.739C407.912 366.739 408.586 366.852 409.25 367.08C409.915 367.307 410.52 367.676 411.066 368.188C411.611 368.693 412.046 369.364 412.37 370.199C412.694 371.034 412.855 372.062 412.855 373.284V374.136H402.765V372.398H410.81C410.81 371.659 410.662 371 410.367 370.42C410.077 369.841 409.662 369.384 409.123 369.048C408.588 368.713 407.958 368.545 407.23 368.545C406.429 368.545 405.736 368.744 405.151 369.142C404.571 369.534 404.125 370.045 403.813 370.676C403.5 371.307 403.344 371.983 403.344 372.705V373.864C403.344 374.852 403.515 375.69 403.855 376.378C404.202 377.06 404.682 377.58 405.296 377.938C405.909 378.29 406.623 378.466 407.435 378.466C407.963 378.466 408.441 378.392 408.867 378.244C409.299 378.091 409.671 377.864 409.983 377.562C410.296 377.256 410.537 376.875 410.708 376.42L412.651 376.966C412.446 377.625 412.103 378.205 411.62 378.705C411.137 379.199 410.54 379.585 409.83 379.864C409.12 380.136 408.321 380.273 407.435 380.273ZM415.915 380V366.909H417.858V368.886H417.995C418.233 368.239 418.665 367.713 419.29 367.31C419.915 366.906 420.62 366.705 421.404 366.705C421.551 366.705 421.736 366.707 421.958 366.713C422.179 366.719 422.347 366.727 422.461 366.739V368.784C422.392 368.767 422.236 368.741 421.992 368.707C421.753 368.668 421.5 368.648 421.233 368.648C420.597 368.648 420.029 368.781 419.529 369.048C419.034 369.31 418.642 369.673 418.353 370.139C418.069 370.599 417.926 371.125 417.926 371.716V380H415.915ZM429.935 380.273C428.674 380.273 427.586 379.994 426.671 379.438C425.762 378.875 425.06 378.091 424.566 377.085C424.077 376.074 423.833 374.898 423.833 373.557C423.833 372.216 424.077 371.034 424.566 370.011C425.06 368.983 425.748 368.182 426.628 367.608C427.515 367.028 428.549 366.739 429.73 366.739C430.412 366.739 431.086 366.852 431.75 367.08C432.415 367.307 433.02 367.676 433.566 368.188C434.111 368.693 434.546 369.364 434.87 370.199C435.194 371.034 435.355 372.062 435.355 373.284V374.136H425.265V372.398H433.31C433.31 371.659 433.162 371 432.867 370.42C432.577 369.841 432.162 369.384 431.623 369.048C431.088 368.713 430.458 368.545 429.73 368.545C428.929 368.545 428.236 368.744 427.651 369.142C427.071 369.534 426.625 370.045 426.313 370.676C426 371.307 425.844 371.983 425.844 372.705V373.864C425.844 374.852 426.015 375.69 426.355 376.378C426.702 377.06 427.182 377.58 427.796 377.938C428.409 378.29 429.123 378.466 429.935 378.466C430.463 378.466 430.941 378.392 431.367 378.244C431.799 378.091 432.171 377.864 432.483 377.562C432.796 377.256 433.037 376.875 433.208 376.42L435.151 376.966C434.946 377.625 434.603 378.205 434.12 378.705C433.637 379.199 433.04 379.585 432.33 379.864C431.62 380.136 430.821 380.273 429.935 380.273ZM447.176 362.545V380H445.165V362.545H447.176ZM456.179 380.273C454.997 380.273 453.96 379.991 453.068 379.429C452.181 378.866 451.488 378.08 450.988 377.068C450.494 376.057 450.247 374.875 450.247 373.523C450.247 372.159 450.494 370.969 450.988 369.952C451.488 368.935 452.181 368.145 453.068 367.582C453.96 367.02 454.997 366.739 456.179 366.739C457.36 366.739 458.395 367.02 459.281 367.582C460.173 368.145 460.866 368.935 461.36 369.952C461.86 370.969 462.11 372.159 462.11 373.523C462.11 374.875 461.86 376.057 461.36 377.068C460.866 378.08 460.173 378.866 459.281 379.429C458.395 379.991 457.36 380.273 456.179 380.273ZM456.179 378.466C457.076 378.466 457.815 378.236 458.395 377.776C458.974 377.315 459.403 376.71 459.681 375.96C459.96 375.21 460.099 374.398 460.099 373.523C460.099 372.648 459.96 371.832 459.681 371.077C459.403 370.321 458.974 369.71 458.395 369.244C457.815 368.778 457.076 368.545 456.179 368.545C455.281 368.545 454.542 368.778 453.963 369.244C453.383 369.71 452.954 370.321 452.676 371.077C452.397 371.832 452.258 372.648 452.258 373.523C452.258 374.398 452.397 375.21 452.676 375.96C452.954 376.71 453.383 377.315 453.963 377.776C454.542 378.236 455.281 378.466 456.179 378.466ZM470.499 380.273C469.317 380.273 468.28 379.991 467.388 379.429C466.502 378.866 465.809 378.08 465.309 377.068C464.814 376.057 464.567 374.875 464.567 373.523C464.567 372.159 464.814 370.969 465.309 369.952C465.809 368.935 466.502 368.145 467.388 367.582C468.28 367.02 469.317 366.739 470.499 366.739C471.681 366.739 472.715 367.02 473.601 367.582C474.493 368.145 475.186 368.935 475.681 369.952C476.181 370.969 476.431 372.159 476.431 373.523C476.431 374.875 476.181 376.057 475.681 377.068C475.186 378.08 474.493 378.866 473.601 379.429C472.715 379.991 471.681 380.273 470.499 380.273ZM470.499 378.466C471.397 378.466 472.135 378.236 472.715 377.776C473.294 377.315 473.723 376.71 474.002 375.96C474.28 375.21 474.419 374.398 474.419 373.523C474.419 372.648 474.28 371.832 474.002 371.077C473.723 370.321 473.294 369.71 472.715 369.244C472.135 368.778 471.397 368.545 470.499 368.545C469.601 368.545 468.863 368.778 468.283 369.244C467.703 369.71 467.275 370.321 466.996 371.077C466.718 371.832 466.578 372.648 466.578 373.523C466.578 374.398 466.718 375.21 466.996 375.96C467.275 376.71 467.703 377.315 468.283 377.776C468.863 378.236 469.601 378.466 470.499 378.466ZM481.376 375.227L481.342 372.739H481.751L487.478 366.909H489.967L483.865 373.08H483.694L481.376 375.227ZM479.501 380V362.545H481.512V380H479.501ZM487.819 380L482.706 373.523L484.137 372.125L490.376 380H487.819ZM492.556 380V366.909H494.567V380H492.556ZM493.578 364.727C493.186 364.727 492.848 364.594 492.564 364.327C492.286 364.06 492.147 363.739 492.147 363.364C492.147 362.989 492.286 362.668 492.564 362.401C492.848 362.134 493.186 362 493.578 362C493.971 362 494.306 362.134 494.584 362.401C494.868 362.668 495.01 362.989 495.01 363.364C495.01 363.739 494.868 364.06 494.584 364.327C494.306 364.594 493.971 364.727 493.578 364.727ZM500.262 372.125V380H498.251V366.909H500.194V368.955H500.365C500.672 368.29 501.137 367.756 501.762 367.352C502.387 366.943 503.194 366.739 504.183 366.739C505.069 366.739 505.845 366.92 506.51 367.284C507.174 367.642 507.691 368.188 508.061 368.92C508.43 369.648 508.615 370.568 508.615 371.682V380H506.603V371.818C506.603 370.79 506.336 369.989 505.802 369.415C505.268 368.835 504.535 368.545 503.603 368.545C502.961 368.545 502.387 368.685 501.882 368.963C501.382 369.241 500.987 369.648 500.697 370.182C500.407 370.716 500.262 371.364 500.262 372.125ZM517.574 385.182C516.603 385.182 515.767 385.057 515.069 384.807C514.37 384.562 513.787 384.239 513.321 383.835C512.861 383.438 512.495 383.011 512.222 382.557L513.824 381.432C514.006 381.67 514.236 381.943 514.515 382.25C514.793 382.562 515.174 382.832 515.657 383.06C516.145 383.293 516.784 383.409 517.574 383.409C518.631 383.409 519.503 383.153 520.191 382.642C520.878 382.131 521.222 381.33 521.222 380.239V377.58H521.051C520.904 377.818 520.694 378.114 520.421 378.466C520.154 378.812 519.767 379.122 519.262 379.395C518.762 379.662 518.086 379.795 517.233 379.795C516.176 379.795 515.228 379.545 514.387 379.045C513.551 378.545 512.89 377.818 512.401 376.864C511.918 375.909 511.676 374.75 511.676 373.386C511.676 372.045 511.912 370.878 512.384 369.884C512.855 368.884 513.512 368.111 514.353 367.565C515.194 367.014 516.165 366.739 517.267 366.739C518.12 366.739 518.796 366.881 519.296 367.165C519.801 367.443 520.188 367.761 520.455 368.119C520.728 368.472 520.938 368.761 521.086 368.989H521.29V366.909H523.233V380.375C523.233 381.5 522.978 382.415 522.466 383.119C521.961 383.83 521.279 384.349 520.421 384.679C519.569 385.014 518.62 385.182 517.574 385.182ZM517.506 377.989C518.313 377.989 518.995 377.804 519.551 377.435C520.108 377.065 520.532 376.534 520.821 375.841C521.111 375.148 521.256 374.318 521.256 373.352C521.256 372.409 521.114 371.577 520.83 370.855C520.546 370.134 520.125 369.568 519.569 369.159C519.012 368.75 518.324 368.545 517.506 368.545C516.654 368.545 515.944 368.761 515.375 369.193C514.813 369.625 514.39 370.205 514.105 370.932C513.827 371.659 513.688 372.466 513.688 373.352C513.688 374.261 513.83 375.065 514.114 375.764C514.404 376.457 514.83 377.003 515.392 377.401C515.961 377.793 516.665 377.989 517.506 377.989ZM539.495 366.909V368.614H532.438V366.909H539.495ZM534.551 380V365.102C534.551 364.352 534.728 363.727 535.08 363.227C535.432 362.727 535.89 362.352 536.452 362.102C537.015 361.852 537.608 361.727 538.233 361.727C538.728 361.727 539.131 361.767 539.444 361.847C539.756 361.926 539.989 362 540.142 362.068L539.563 363.807C539.461 363.773 539.319 363.73 539.137 363.679C538.961 363.628 538.728 363.602 538.438 363.602C537.773 363.602 537.293 363.77 536.998 364.105C536.708 364.44 536.563 364.932 536.563 365.58V380H534.551ZM547.093 380.273C545.911 380.273 544.874 379.991 543.982 379.429C543.096 378.866 542.402 378.08 541.902 377.068C541.408 376.057 541.161 374.875 541.161 373.523C541.161 372.159 541.408 370.969 541.902 369.952C542.402 368.935 543.096 368.145 543.982 367.582C544.874 367.02 545.911 366.739 547.093 366.739C548.275 366.739 549.309 367.02 550.195 367.582C551.087 368.145 551.78 368.935 552.275 369.952C552.775 370.969 553.025 372.159 553.025 373.523C553.025 374.875 552.775 376.057 552.275 377.068C551.78 378.08 551.087 378.866 550.195 379.429C549.309 379.991 548.275 380.273 547.093 380.273ZM547.093 378.466C547.99 378.466 548.729 378.236 549.309 377.776C549.888 377.315 550.317 376.71 550.596 375.96C550.874 375.21 551.013 374.398 551.013 373.523C551.013 372.648 550.874 371.832 550.596 371.077C550.317 370.321 549.888 369.71 549.309 369.244C548.729 368.778 547.99 368.545 547.093 368.545C546.195 368.545 545.456 368.778 544.877 369.244C544.297 369.71 543.868 370.321 543.59 371.077C543.311 371.832 543.172 372.648 543.172 373.523C543.172 374.398 543.311 375.21 543.59 375.96C543.868 376.71 544.297 377.315 544.877 377.776C545.456 378.236 546.195 378.466 547.093 378.466ZM556.095 380V366.909H558.038V368.886H558.174C558.413 368.239 558.845 367.713 559.47 367.31C560.095 366.906 560.799 366.705 561.583 366.705C561.731 366.705 561.916 366.707 562.137 366.713C562.359 366.719 562.527 366.727 562.64 366.739V368.784C562.572 368.767 562.416 368.741 562.172 368.707C561.933 368.668 561.68 368.648 561.413 368.648C560.777 368.648 560.208 368.781 559.708 369.048C559.214 369.31 558.822 369.673 558.532 370.139C558.248 370.599 558.106 371.125 558.106 371.716V380H556.095Z" fill="white"/>
</g>
<defs>
<radialGradient id="paint0_radial_1_3" cx="0" cy="0" r="1" gradientUnits="userSpaceOnUse" gradientTransform="translate(335.5 252.5) rotate(90) scale(55.5)">
<stop/>
<stop offset="1"/>
</radialGradient>
<clipPath id="clip0_1_3">
<rect width="670" height="576" fill="white"/>
</clipPath>
</defs>
</svg>
